<svg width="74" height="74" viewBox="0 0 74 74" fill="none" xmlns="http://www.w3.org/2000/svg">
<g clip-path="url(#clip0_1450_4612)">
<path d="M41.3039 53.2582C41.0678 52.3528 41.6104 51.4262 42.5122 51.1902C43.4141 50.9542 44.3442 51.4967 44.5802 52.3986C44.8162 53.304 44.2737 54.2305 43.3718 54.4665C42.4699 54.7026 41.5399 54.16 41.3039 53.2582ZM39.479 55.0795C40.321 54.8611 40.8247 53.998 40.6028 53.156C40.3808 52.314 39.5212 51.8102 38.6793 52.0322C37.8373 52.2506 37.3335 53.1137 37.5554 53.9557C37.7774 54.7977 38.637 55.3015 39.479 55.0795ZM36.7346 52.6346C36.5303 51.856 35.7341 51.391 34.959 51.5953C34.1805 51.7997 33.7154 52.5959 33.9198 53.3709C34.1241 54.1459 34.9203 54.6145 35.6953 54.4102C36.4739 54.2058 36.9389 53.4096 36.7346 52.6346ZM32.3309 52.6064C33.0461 52.4197 33.4724 51.6905 33.2856 50.9753C33.0989 50.2601 32.3697 49.8339 31.6545 50.0206C30.9394 50.2073 30.5131 50.9365 30.6998 51.6517C30.8865 52.3669 31.6158 52.7931 32.3309 52.6064ZM28.1668 48.9496C28.3359 49.6014 29.0017 49.9889 29.6535 49.8198C30.3052 49.6507 30.6928 48.9848 30.5237 48.3331C30.3546 47.6813 29.6887 47.2938 29.037 47.4629C28.3852 47.632 27.9977 48.2979 28.1668 48.9496ZM28.7129 44.8665C28.5579 44.2782 27.959 43.9294 27.3706 44.0809C26.7823 44.2359 26.4335 44.8348 26.585 45.4231C26.74 46.0115 27.3389 46.3602 27.9272 46.2088C28.5156 46.0538 28.8643 45.4548 28.7129 44.8665ZM27.434 42.1996C27.959 42.0623 28.2725 41.5268 28.1351 41.0018C27.9977 40.4769 27.4622 40.1634 26.9373 40.3008C26.4124 40.4382 26.0988 40.9737 26.2362 41.4986C26.3736 42.0235 26.9091 42.337 27.434 42.1996ZM27.1487 37.7784C27.2685 38.2399 27.7405 38.5146 28.1985 38.3949C28.66 38.2751 28.9348 37.803 28.815 37.345C28.6952 36.8835 28.2232 36.6087 27.7652 36.7285C27.3037 36.8483 27.0289 37.3204 27.1487 37.7784ZM30.0692 35.0622C30.4673 34.96 30.7033 34.5513 30.5976 34.1568C30.4955 33.7587 30.0868 33.5226 29.6922 33.6283C29.2941 33.7305 29.0581 34.1392 29.1638 34.5337C29.266 34.9318 29.6746 35.1679 30.0692 35.0622ZM32.1266 32.0254C32.2147 32.3601 32.5529 32.5574 32.8875 32.4693C33.2222 32.3812 33.4195 32.043 33.3314 31.7083C33.2434 31.3736 32.9052 31.1764 32.5705 31.2644C32.2358 31.3525 32.0385 31.6907 32.1266 32.0254ZM36.495 30.884C36.7663 30.8135 36.9248 30.5387 36.8544 30.2674C36.7839 29.9962 36.5091 29.8376 36.2379 29.9081C35.9666 29.9786 35.8081 30.2534 35.8785 30.5246C35.949 30.7959 36.2238 30.9544 36.495 30.884ZM40.328 30.5704C40.5323 30.5176 40.6556 30.3062 40.6028 30.0983C40.5499 29.8905 40.3386 29.7707 40.1307 29.8236C39.9264 29.8764 39.8031 30.0878 39.8559 30.2956C39.9088 30.5035 40.1201 30.6233 40.328 30.5704ZM43.7699 30.9615C43.629 31.0002 43.5409 31.1447 43.5797 31.2856C43.6184 31.4265 43.7629 31.5146 43.9038 31.4758C44.0447 31.4371 44.1328 31.2926 44.094 31.1517C44.0553 31.0108 43.9108 30.9227 43.7699 30.9615ZM55.0539 46.1841C55.8818 45.018 55.607 43.401 54.4374 42.5731C53.2678 41.7452 51.6543 42.02 50.8264 43.1896C49.9985 44.3557 50.2733 45.9727 51.4429 46.8006C52.609 47.6285 54.226 47.3537 55.0539 46.1841ZM53.0212 51.1585C53.7927 50.0699 53.5355 48.5586 52.4469 47.7835C51.3583 47.012 49.847 47.2692 49.0719 48.3578C48.3004 49.4463 48.5576 50.9577 49.6462 51.7327C50.7348 52.5043 52.2461 52.2471 53.0212 51.1585ZM46.1867 55.9356C47.2013 56.6543 48.6034 56.4147 49.3221 55.4001C50.0408 54.3855 49.8012 52.9834 48.7866 52.2647C48.4836 52.0498 48.1454 51.923 47.8002 51.8737C48.0327 51.472 48.1137 50.9859 47.9869 50.4997C47.7332 49.5309 46.7433 48.9531 45.7745 49.2068C44.8057 49.4604 44.2279 50.4504 44.4815 51.4192C44.6507 52.0604 45.1403 52.5219 45.7322 52.6945C45.704 52.7297 45.6758 52.7614 45.6512 52.7967C44.9325 53.8113 45.172 55.2134 46.1867 55.9321V55.9356ZM41.6702 58.6377C42.6073 59.3035 43.9038 59.0816 44.5696 58.1445C45.2355 57.2074 45.0135 55.9109 44.0764 55.2451C43.1393 54.5793 41.8429 54.8012 41.177 55.7383C40.5112 56.6754 40.7331 57.9719 41.6702 58.6377ZM39.2324 59.2577C39.8418 58.3981 39.641 57.2039 38.7779 56.5944C37.9183 55.9849 36.724 56.1857 36.1146 57.0489C35.5051 57.9085 35.7059 59.1027 36.569 59.7122C37.4321 60.3217 38.6229 60.1209 39.2324 59.2577ZM33.3279 56.2421C32.5423 55.6855 31.4572 55.8722 30.9006 56.6543C30.344 57.4399 30.5307 58.525 31.3128 59.0816C32.0984 59.6382 33.1835 59.4515 33.7401 58.6694C34.2967 57.8838 34.11 56.7987 33.3279 56.2421ZM28.5367 56.302C29.037 55.5939 28.8714 54.6145 28.1633 54.1142C27.4552 53.614 26.4758 53.7796 25.9755 54.4877C25.4753 55.1958 25.6409 56.1752 26.349 56.6754C27.0571 57.1757 28.0365 57.0101 28.5367 56.302ZM22.361 52.7015C22.9916 53.149 23.8653 53.001 24.3127 52.3704C24.7601 51.7398 24.6122 50.8661 23.9816 50.4187C23.3509 49.9713 22.4773 50.1192 22.0298 50.7498C21.5824 51.3804 21.7304 52.2541 22.361 52.7015ZM21.364 45.786C20.8109 45.3914 20.0429 45.5253 19.6483 46.0784C19.2538 46.6315 19.3876 47.3995 19.9407 47.7941C20.4938 48.1887 21.2618 48.0548 21.6564 47.5017C22.051 46.9486 21.9171 46.1806 21.364 45.786ZM19.1657 42.3899C19.6448 42.7281 20.3036 42.6154 20.6453 42.1398C20.9835 41.6606 20.8708 41.0018 20.3952 40.6601C19.9161 40.3219 19.2573 40.4347 18.9156 40.9102C18.5738 41.3858 18.6901 42.0482 19.1657 42.3899ZM20.1063 36.9223C20.5079 37.2076 21.0646 37.1125 21.3464 36.7109C21.6318 36.3093 21.5366 35.7527 21.135 35.4708C20.7334 35.1855 20.1768 35.2806 19.8949 35.6822C19.6096 36.0838 19.7047 36.6404 20.1063 36.9223ZM22.8366 31.8352C23.1607 32.0641 23.6116 31.9902 23.8406 31.6625C24.0696 31.3384 23.9956 30.8875 23.668 30.6585C23.3439 30.4295 22.893 30.5035 22.664 30.8311C22.435 31.1587 22.509 31.6062 22.8366 31.8352ZM26.9796 27.9317C27.2262 28.1079 27.5714 28.048 27.7476 27.8014C27.9237 27.5548 27.8638 27.2095 27.6172 27.0334C27.3706 26.8572 27.0254 26.9171 26.8492 27.1637C26.6731 27.4103 26.733 27.7556 26.9796 27.9317ZM32.4965 25.5115C32.6198 25.3389 32.5775 25.1028 32.4049 24.9795C32.2323 24.8562 31.9962 24.8985 31.8729 25.0711C31.7496 25.2437 31.7919 25.4798 31.9645 25.6031C32.1372 25.7264 32.3732 25.6841 32.4965 25.5115ZM57.3297 32.0007C59.366 31.8352 60.8808 30.049 60.7153 28.0128C60.5497 25.9765 58.7636 24.4616 56.7273 24.6272C54.691 24.7928 53.1762 26.5789 53.3417 28.6152C53.5073 30.6514 55.2935 32.1663 57.3297 32.0007ZM63.0615 35.3193C62.9065 33.417 61.2367 32.0007 59.3343 32.1557C57.4319 32.3108 56.0157 33.9806 56.1707 35.883C56.3257 37.7854 57.9956 39.2016 59.8979 39.0466C61.8003 38.8916 63.2166 37.2217 63.0615 35.3193ZM62.9101 43.3587C62.7656 41.5902 61.2155 40.2726 59.447 40.417C57.6785 40.5615 56.3609 42.1116 56.5054 43.8801C56.6498 45.6486 58.1999 46.9662 59.9684 46.8217C61.7369 46.6773 63.0545 45.1272 62.9101 43.3587ZM57.5094 53.9275C59.144 53.7937 60.363 52.3598 60.2291 50.7252C60.0952 49.0905 58.6614 47.8716 57.0267 48.0055C55.3921 48.1393 54.1732 49.5732 54.307 51.2078C54.4409 52.8425 55.8747 54.0614 57.5094 53.9275ZM52.4681 54.3503C50.9673 54.4736 49.847 55.7912 49.9703 57.2919C50.0936 58.7927 51.4112 59.913 52.9119 59.7897C54.4127 59.6664 55.533 58.3488 55.4097 56.848C55.2864 55.3473 53.9688 54.227 52.4681 54.3503ZM48.8606 61.2447C48.7478 59.8778 47.55 58.8561 46.1796 58.9689C44.8127 59.0816 43.7911 60.2794 43.9038 61.6498C44.0165 63.0167 45.2143 64.0384 46.5847 63.9256C47.9516 63.8129 48.9733 62.6151 48.8606 61.2447ZM38.94 65.8562C40.173 65.754 41.0925 64.6725 40.9938 63.4395C40.8917 62.2064 39.8101 61.287 38.5771 61.3856C37.3441 61.4842 36.4246 62.5693 36.5232 63.8023C36.6254 65.0354 37.7069 65.9549 38.94 65.8562ZM30.6047 61.1813C29.502 61.2693 28.6847 62.2381 28.7728 63.3373C28.8608 64.4365 29.8296 65.2573 30.9288 65.1692C32.0315 65.0776 32.8488 64.1123 32.7607 63.0132C32.6726 61.914 31.7038 61.0932 30.6047 61.1813ZM23.4919 58.5179C22.5231 58.5954 21.8044 59.4444 21.8819 60.4133C21.9594 61.3821 22.8084 62.1008 23.7772 62.0232C24.746 61.9457 25.4647 61.0967 25.3872 60.1279C25.3097 59.1591 24.4607 58.4404 23.4919 58.5179ZM19.3524 55.1852C19.2855 54.3503 18.5527 53.7302 17.7178 53.7972C16.8828 53.8641 16.2628 54.5969 16.3297 55.4318C16.3967 56.2668 17.1294 56.8868 17.9644 56.8199C18.7993 56.7529 19.4193 56.0202 19.3524 55.1852ZM13.7685 47.4347C13.0675 47.4911 12.5461 48.1076 12.6024 48.8052C12.6588 49.5062 13.2753 50.0276 13.9729 49.9713C14.6739 49.9149 15.1953 49.3019 15.139 48.6008C15.0826 47.8998 14.4661 47.3784 13.7685 47.4347ZM13.2331 40.787C13.1873 40.2198 12.6905 39.797 12.1233 39.8463C11.5561 39.8921 11.1334 40.3889 11.1827 40.956C11.2285 41.5232 11.7252 41.946 12.2924 41.8967C12.8596 41.8509 13.2824 41.3541 13.2331 40.787ZM13.2401 33.8186C13.6734 33.7833 13.994 33.4029 13.9588 32.9695C13.9236 32.5362 13.5431 32.2156 13.1098 32.2509C12.6764 32.2861 12.3558 32.6666 12.3911 33.0999C12.4263 33.5332 12.8068 33.8538 13.2401 33.8186ZM17.0519 26.1033C17.0273 25.8039 16.7666 25.5819 16.4671 25.6066C16.1677 25.6313 15.9457 25.892 15.9704 26.1914C15.995 26.4909 16.2557 26.7128 16.5552 26.6881C16.8546 26.6635 17.0766 26.4028 17.0519 26.0998V26.1033ZM51.6226 9.04172C53.6976 6.99137 53.7187 3.64457 51.6648 1.56956C49.611 -0.505451 46.2677 -0.526588 44.1927 1.52729C42.1177 3.58116 42.0965 6.92443 44.1504 8.99945C46.2007 11.0745 49.5475 11.0956 51.6226 9.04172ZM53.9195 14.3543C55.836 16.2955 58.9644 16.3131 60.902 14.3966C62.8396 12.4801 62.8607 9.35174 60.9443 7.41412C59.0278 5.47298 55.8994 5.45537 53.9618 7.37185C52.0242 9.28833 52.003 12.4167 53.9195 14.3543ZM61.6277 22.8023C63.4103 24.6061 66.3167 24.6237 68.1205 22.8411C69.9242 21.0585 69.9418 18.152 68.1592 16.3483C66.3766 14.5446 63.4702 14.5269 61.6665 16.3095C59.8627 18.0922 59.8451 20.9986 61.6277 22.8023ZM65.9856 26.8361C64.3192 28.4848 64.3016 31.1728 65.9504 32.8392C67.5991 34.5055 70.2871 34.5232 71.9534 32.8744C73.6198 31.2257 73.6374 28.5377 71.9887 26.8713C70.3399 25.205 67.6519 25.1874 65.9856 26.8361ZM72.3374 37.9968C70.8226 36.4643 68.3565 36.4502 66.824 37.9651C65.2916 39.4799 65.2775 41.946 66.7923 43.4785C68.3072 45.011 70.7733 45.025 72.3057 43.5102C73.8382 41.9953 73.8523 39.5293 72.3374 37.9968ZM64.1889 48.7911C62.7938 50.1685 62.7797 52.4197 64.1607 53.8113C65.5382 55.2064 67.7893 55.2204 69.1809 53.8395C70.576 52.462 70.5901 50.2108 69.2091 48.8193C67.8316 47.4242 65.5804 47.4101 64.1889 48.7911ZM58.0801 58.4193C56.8224 59.6629 56.8083 61.6921 58.0554 62.9498C59.3026 64.2075 61.3283 64.2216 62.5859 62.9744C63.8436 61.7308 63.8577 59.7016 62.6106 58.4439C61.367 57.1862 59.3378 57.1722 58.0801 58.4193ZM49.1706 65.5145C48.0468 66.6242 48.0362 68.4315 49.1459 69.5553C50.2557 70.6791 52.0629 70.6897 53.1867 69.58C54.3106 68.4702 54.3211 66.6594 53.2114 65.5391C52.1017 64.4153 50.2944 64.4048 49.1706 65.5145ZM38.94 69.129C37.9535 70.1049 37.943 71.6937 38.9188 72.6801C39.8947 73.6666 41.4835 73.6771 42.4699 72.7013C43.4564 71.7254 43.4669 70.1366 42.4911 69.1502C41.5152 68.1637 39.9264 68.1532 38.94 69.129ZM28.2901 69.2664C27.4411 70.1049 27.4305 71.4753 28.2725 72.3279C29.111 73.1769 30.4814 73.1874 31.3339 72.3455C32.183 71.507 32.1935 70.1366 31.3515 69.284C30.5131 68.435 29.1427 68.4244 28.2901 69.2664ZM18.1229 65.9302C17.4077 66.6348 17.4007 67.7868 18.1088 68.4984C18.8134 69.2136 19.9654 69.2206 20.6806 68.5125C21.3957 67.8079 21.4028 66.6559 20.6946 65.9408C19.9901 65.2256 18.8381 65.2186 18.1229 65.9267V65.9302ZM9.35078 59.1344C8.77301 59.7052 8.76597 60.6352 9.34021 61.213C9.91092 61.7907 10.841 61.7978 11.4187 61.2235C11.9965 60.6528 12.0036 59.7228 11.4293 59.145C10.8586 58.5672 9.92854 58.5602 9.35078 59.1344ZM3.46042 49.9149C3.02005 50.3517 3.01653 51.0634 3.44985 51.5037C3.88317 51.9441 4.59833 51.9512 5.03869 51.5143C5.47906 51.0775 5.48259 50.3658 5.04926 49.9255C4.61242 49.4851 3.90079 49.4816 3.46042 49.9149ZM1.02959 39.5645C0.723093 39.8675 0.723092 40.3571 1.02254 40.6636C1.32552 40.9701 1.8152 40.9737 2.1217 40.6707C2.4282 40.3677 2.4282 39.878 2.12875 39.5715C1.82577 39.265 1.33608 39.265 1.02959 39.5645Z" fill="#D86E32"/>
</g>
<defs>
<clipPath id="clip0_1450_4612">
<rect width="72.6656" height="73.4266" fill="white" transform="translate(0.798828)"/>
</clipPath>
</defs>
</svg>
