<svg width="24" height="25" viewBox="0 0 24 25" fill="none" xmlns="http://www.w3.org/2000/svg">
<path d="M21 11.8214H3C2.04 11.8214 1.25 11.0314 1.25 10.0714V6.75142C1.25 6.07142 1.71998 5.38142 2.34998 5.13142L11.35 1.53145C11.73 1.38145 12.27 1.38145 12.65 1.53145L21.65 5.13142C22.28 5.38142 22.75 6.08142 22.75 6.75142V10.0714C22.75 11.0314 21.96 11.8214 21 11.8214ZM12 2.91145C11.96 2.91145 11.92 2.9114 11.9 2.9214L2.90997 6.52144C2.84997 6.55144 2.75 6.68142 2.75 6.75142V10.0714C2.75 10.2114 2.86 10.3214 3 10.3214H21C21.14 10.3214 21.25 10.2114 21.25 10.0714V6.75142C21.25 6.68142 21.16 6.55144 21.09 6.52144L12.09 2.9214C12.07 2.9114 12.04 2.91145 12 2.91145Z" fill="white"/>
<path d="M22 22.8215H2C1.59 22.8215 1.25 22.4815 1.25 22.0715V19.0715C1.25 18.1115 2.04 17.3215 3 17.3215H21C21.96 17.3215 22.75 18.1115 22.75 19.0715V22.0715C22.75 22.4815 22.41 22.8215 22 22.8215ZM2.75 21.3215H21.25V19.0715C21.25 18.9315 21.14 18.8215 21 18.8215H3C2.86 18.8215 2.75 18.9315 2.75 19.0715V21.3215Z" fill="white"/>
<path d="M4 18.8215C3.59 18.8215 3.25 18.4815 3.25 18.0715V11.0715C3.25 10.6615 3.59 10.3215 4 10.3215C4.41 10.3215 4.75 10.6615 4.75 11.0715V18.0715C4.75 18.4815 4.41 18.8215 4 18.8215Z" fill="white"/>
<path d="M8 18.8215C7.59 18.8215 7.25 18.4815 7.25 18.0715V11.0715C7.25 10.6615 7.59 10.3215 8 10.3215C8.41 10.3215 8.75 10.6615 8.75 11.0715V18.0715C8.75 18.4815 8.41 18.8215 8 18.8215Z" fill="white"/>
<path d="M12 18.8215C11.59 18.8215 11.25 18.4815 11.25 18.0715V11.0715C11.25 10.6615 11.59 10.3215 12 10.3215C12.41 10.3215 12.75 10.6615 12.75 11.0715V18.0715C12.75 18.4815 12.41 18.8215 12 18.8215Z" fill="white"/>
<path d="M16 18.8215C15.59 18.8215 15.25 18.4815 15.25 18.0715V11.0715C15.25 10.6615 15.59 10.3215 16 10.3215C16.41 10.3215 16.75 10.6615 16.75 11.0715V18.0715C16.75 18.4815 16.41 18.8215 16 18.8215Z" fill="white"/>
<path d="M20 18.8215C19.59 18.8215 19.25 18.4815 19.25 18.0715V11.0715C19.25 10.6615 19.59 10.3215 20 10.3215C20.41 10.3215 20.75 10.6615 20.75 11.0715V18.0715C20.75 18.4815 20.41 18.8215 20 18.8215Z" fill="white"/>
<path d="M23 22.8215H1C0.59 22.8215 0.25 22.4815 0.25 22.0715C0.25 21.6615 0.59 21.3215 1 21.3215H23C23.41 21.3215 23.75 21.6615 23.75 22.0715C23.75 22.4815 23.41 22.8215 23 22.8215Z" fill="white"/>
<path d="M12 9.32153C10.76 9.32153 9.75 8.31153 9.75 7.07153C9.75 5.83153 10.76 4.82153 12 4.82153C13.24 4.82153 14.25 5.83153 14.25 7.07153C14.25 8.31153 13.24 9.32153 12 9.32153ZM12 6.32153C11.59 6.32153 11.25 6.66153 11.25 7.07153C11.25 7.48153 11.59 7.82153 12 7.82153C12.41 7.82153 12.75 7.48153 12.75 7.07153C12.75 6.66153 12.41 6.32153 12 6.32153Z" fill="white"/>
</svg>
