<svg width="20" height="21" viewBox="0 0 20 21" fill="none" xmlns="http://www.w3.org/2000/svg">
<path d="M9.99935 19.672C5.05768 19.672 1.04102 15.6553 1.04102 10.7136C1.04102 5.77198 5.05768 1.75531 9.99935 1.75531C14.941 1.75531 18.9577 5.77198 18.9577 10.7136C18.9577 15.6553 14.941 19.672 9.99935 19.672ZM9.99935 3.00531C5.74935 3.00531 2.29102 6.46364 2.29102 10.7136C2.29102 14.9636 5.74935 18.422 9.99935 18.422C14.2493 18.422 17.7077 14.9636 17.7077 10.7136C17.7077 6.46364 14.2493 3.00531 9.99935 3.00531Z" fill="#2ABA06"/>
<path d="M8.81719 13.697C8.65052 13.697 8.49219 13.6303 8.37552 13.5136L6.01719 11.1553C5.77552 10.9136 5.77552 10.5136 6.01719 10.272C6.25885 10.0303 6.65885 10.0303 6.90052 10.272L8.81719 12.1886L13.1005 7.90531C13.3422 7.66364 13.7422 7.66364 13.9839 7.90531C14.2255 8.14698 14.2255 8.54698 13.9839 8.78864L9.25885 13.5136C9.14219 13.6303 8.98385 13.697 8.81719 13.697Z" fill="#2ABA06"/>
</svg>
