<svg width="66" height="65" viewBox="0 0 66 65" fill="none" xmlns="http://www.w3.org/2000/svg">
<path d="M64.0407 40.2441C64.9473 39.2326 65.5 37.8977 65.5 36.4355C65.5 33.2855 62.9372 30.7227 59.7871 30.7227C58.5628 30.7227 48.998 30.7227 47.7043 30.7227C49.4051 26.1615 50.2656 21.3792 50.2656 16.4685V13.584C50.2656 10.4339 47.7028 7.87109 44.5527 7.87109C41.4026 7.87109 38.8398 10.4339 38.8398 13.584C38.8398 17.9875 37.1251 22.1272 34.0114 25.2408L28.5296 30.7227H27.4141V28.8184C27.4141 27.7667 26.5614 26.9141 25.5098 26.9141H19.7969V25.0098C19.7969 23.9581 18.9443 23.1055 17.8926 23.1055H2.4043C1.35262 23.1055 0.5 23.9581 0.5 25.0098V63.0957C0.5 64.1474 1.35262 65 2.4043 65H17.8926C18.9443 65 19.7969 64.1474 19.7969 63.0957V61.1914H25.5098C26.3266 61.1914 27.0214 60.6761 27.2918 59.9536L28.4287 61.0905C30.9497 63.6115 34.3017 65 37.8671 65C38.2437 65 55.5928 65 55.9785 65C59.1286 65 61.6914 62.4372 61.6914 59.2871C61.6914 58.5437 61.5472 57.8336 61.2876 57.1815C63.712 56.5207 65.5 54.3008 65.5 51.6699C65.5 50.2078 64.9473 48.8729 64.0407 47.8613C64.9473 46.8498 65.5 45.5149 65.5 44.0527C65.5 42.5906 64.9473 41.2557 64.0407 40.2441ZM15.9883 61.1914H4.30859V26.9141H15.9883C15.9883 27.6675 15.9883 60.8111 15.9883 61.1914ZM23.6055 32.627V55.4785V57.3828H19.7969V30.7227H23.6055V32.627ZM47.9164 47.8613C47.0098 48.8729 46.457 50.2078 46.457 51.6699C46.457 53.132 47.0098 54.467 47.9164 55.4785C47.0098 56.4901 46.457 57.825 46.457 59.2871C46.457 59.9546 46.5732 60.5954 46.7846 61.1914H37.8671C35.3191 61.1914 32.9234 60.1991 31.1217 58.3974L27.4141 54.6898V34.5312H29.3184C29.8235 34.5312 30.3077 34.3305 30.6648 33.9734L36.7045 27.9339C40.5375 24.1009 42.6484 19.0048 42.6484 13.584C42.6484 12.534 43.5027 11.6797 44.5527 11.6797C45.6028 11.6797 46.457 12.534 46.457 13.584V16.4685C46.457 21.8075 45.3357 26.9786 43.1243 31.8382C42.5508 33.0981 43.4741 34.5312 44.8574 34.5312H46.7846C46.5732 35.1273 46.457 35.768 46.457 36.4355C46.457 37.8977 47.0098 39.2326 47.9164 40.2441C47.0098 41.2557 46.457 42.5906 46.457 44.0527C46.457 45.5149 47.0098 46.8498 47.9164 47.8613ZM55.9785 61.1914H52.1699C51.1199 61.1914 50.2656 60.3371 50.2656 59.2871C50.2656 58.2371 51.1199 57.3828 52.1699 57.3828H55.9785C57.0285 57.3828 57.8828 58.2371 57.8828 59.2871C57.8828 60.3371 57.0285 61.1914 55.9785 61.1914ZM59.7871 53.5742C58.9798 53.5742 52.9772 53.5742 52.1699 53.5742C51.1199 53.5742 50.2656 52.72 50.2656 51.6699C50.2656 50.6199 51.1199 49.7656 52.1699 49.7656H59.7871C60.8371 49.7656 61.6914 50.6199 61.6914 51.6699C61.6914 52.72 60.8371 53.5742 59.7871 53.5742ZM59.7871 45.957H52.1699C51.1199 45.957 50.2656 45.1028 50.2656 44.0527C50.2656 43.0027 51.1199 42.1484 52.1699 42.1484H59.7871C60.8371 42.1484 61.6914 43.0027 61.6914 44.0527C61.6914 45.1028 60.8371 45.957 59.7871 45.957ZM59.7871 38.3398H52.1699C51.1199 38.3398 50.2656 37.4856 50.2656 36.4355C50.2656 35.3855 51.1199 34.5312 52.1699 34.5312H59.7871C60.8371 34.5312 61.6914 35.3855 61.6914 36.4355C61.6914 37.4856 60.8371 38.3398 59.7871 38.3398Z" fill="#1C2971"/>
<path d="M10.2754 57.3828C11.3271 57.3828 12.1797 56.5302 12.1797 55.4785C12.1797 54.4268 11.3271 53.5742 10.2754 53.5742C9.22368 53.5742 8.37109 54.4268 8.37109 55.4785C8.37109 56.5302 9.22368 57.3828 10.2754 57.3828Z" fill="#1C2971"/>
<path d="M52.1699 3.80859C53.2216 3.80859 54.0742 2.95601 54.0742 1.9043C54.0742 0.852583 53.2216 0 52.1699 0C51.1182 0 50.2656 0.852583 50.2656 1.9043C50.2656 2.95601 51.1182 3.80859 52.1699 3.80859Z" fill="#596AC5"/>
<path d="M33.9923 7.89508L29.4876 5.64267L27.2316 1.06347C26.535 -0.35053 24.5123 -0.351292 23.8151 1.06347L21.5592 5.64267L17.0546 7.8952C15.6521 8.59649 15.6553 10.6021 17.0546 11.3016L21.5649 13.5569L23.8201 18.0672C24.5214 19.4696 26.527 19.4665 27.2267 18.0672L29.482 13.5569L33.9923 11.3016C35.3947 10.6004 35.3914 8.59484 33.9923 7.89508ZM27.2108 10.4344C26.8423 10.6186 26.5435 10.9174 26.3592 11.286L25.5232 12.9577L24.6874 11.286C24.503 10.9174 24.2043 10.6187 23.8358 10.4344L22.164 9.59841L23.8359 8.76255C24.2079 8.57656 24.5087 8.2739 24.6924 7.90079L25.5233 6.21409L26.3543 7.90079C26.538 8.27378 26.8388 8.57643 27.2108 8.76255L28.8825 9.59841L27.2108 10.4344Z" fill="#596AC5"/>
<path d="M63.5957 15.4883H61.6914V13.584C61.6914 12.5323 60.8388 11.6797 59.7871 11.6797C58.7354 11.6797 57.8828 12.5323 57.8828 13.584V15.4883H55.9785C54.9268 15.4883 54.0742 16.3409 54.0742 17.3926C54.0742 18.4443 54.9268 19.2969 55.9785 19.2969H57.8828V21.2012C57.8828 22.2529 58.7354 23.1055 59.7871 23.1055C60.8388 23.1055 61.6914 22.2529 61.6914 21.2012V19.2969H63.5957C64.6474 19.2969 65.5 18.4443 65.5 17.3926C65.5 16.3409 64.6474 15.4883 63.5957 15.4883Z" fill="#596AC5"/>
</svg>
