<svg width="24" height="25" viewBox="0 0 24 25" fill="none" xmlns="http://www.w3.org/2000/svg">
<path d="M19 10.8215H17C14.58 10.8215 13.25 9.49153 13.25 7.07153V5.07153C13.25 2.65153 14.58 1.32153 17 1.32153H19C21.42 1.32153 22.75 2.65153 22.75 5.07153V7.07153C22.75 9.49153 21.42 10.8215 19 10.8215ZM17 2.82153C15.42 2.82153 14.75 3.49153 14.75 5.07153V7.07153C14.75 8.65153 15.42 9.32153 17 9.32153H19C20.58 9.32153 21.25 8.65153 21.25 7.07153V5.07153C21.25 3.49153 20.58 2.82153 19 2.82153H17Z" fill="white"/>
<path d="M7 22.8215H5C2.58 22.8215 1.25 21.4915 1.25 19.0715V17.0715C1.25 14.6515 2.58 13.3215 5 13.3215H7C9.42 13.3215 10.75 14.6515 10.75 17.0715V19.0715C10.75 21.4915 9.42 22.8215 7 22.8215ZM5 14.8215C3.42 14.8215 2.75 15.4915 2.75 17.0715V19.0715C2.75 20.6515 3.42 21.3215 5 21.3215H7C8.58 21.3215 9.25 20.6515 9.25 19.0715V17.0715C9.25 15.4915 8.58 14.8215 7 14.8215H5Z" fill="white"/>
<path d="M6 10.8215C3.38 10.8215 1.25 8.69153 1.25 6.07153C1.25 3.45153 3.38 1.32153 6 1.32153C8.62 1.32153 10.75 3.45153 10.75 6.07153C10.75 8.69153 8.62 10.8215 6 10.8215ZM6 2.82153C4.21 2.82153 2.75 4.28153 2.75 6.07153C2.75 7.86153 4.21 9.32153 6 9.32153C7.79 9.32153 9.25 7.86153 9.25 6.07153C9.25 4.28153 7.79 2.82153 6 2.82153Z" fill="white"/>
<path d="M18 22.8215C15.38 22.8215 13.25 20.6915 13.25 18.0715C13.25 15.4515 15.38 13.3215 18 13.3215C20.62 13.3215 22.75 15.4515 22.75 18.0715C22.75 20.6915 20.62 22.8215 18 22.8215ZM18 14.8215C16.21 14.8215 14.75 16.2815 14.75 18.0715C14.75 19.8615 16.21 21.3215 18 21.3215C19.79 21.3215 21.25 19.8615 21.25 18.0715C21.25 16.2815 19.79 14.8215 18 14.8215Z" fill="white"/>
</svg>
