<svg width="24" height="25" viewBox="0 0 24 25" fill="none" xmlns="http://www.w3.org/2000/svg">
<path d="M11.5 9.32153H2C1.59 9.32153 1.25 8.98153 1.25 8.57153C1.25 8.16153 1.59 7.82153 2 7.82153H11.5C11.91 7.82153 12.25 8.16153 12.25 8.57153C12.25 8.98153 11.91 9.32153 11.5 9.32153Z" fill="white"/>
<path d="M8 17.3215H6C5.59 17.3215 5.25 16.9815 5.25 16.5715C5.25 16.1615 5.59 15.8215 6 15.8215H8C8.41 15.8215 8.75 16.1615 8.75 16.5715C8.75 16.9815 8.41 17.3215 8 17.3215Z" fill="white"/>
<path d="M14.5 17.3215H10.5C10.09 17.3215 9.75 16.9815 9.75 16.5715C9.75 16.1615 10.09 15.8215 10.5 15.8215H14.5C14.91 15.8215 15.25 16.1615 15.25 16.5715C15.25 16.9815 14.91 17.3215 14.5 17.3215Z" fill="white"/>
<path d="M17.56 21.3215H6.44C2.46 21.3215 1.25 20.1215 1.25 16.1815V7.96153C1.25 4.02153 2.46 2.82153 6.44 2.82153H14.5C14.91 2.82153 15.25 3.16153 15.25 3.57153C15.25 3.98153 14.91 4.32153 14.5 4.32153H6.44C3.3 4.32153 2.75 4.86153 2.75 7.96153V16.1715C2.75 19.2715 3.3 19.8115 6.44 19.8115H17.55C20.69 19.8115 21.24 19.2715 21.24 16.1715V12.0915C21.24 11.6815 21.58 11.3415 21.99 11.3415C22.4 11.3415 22.74 11.6815 22.74 12.0915V16.1715C22.75 20.1215 21.54 21.3215 17.56 21.3215Z" fill="white"/>
<path d="M15.5194 11.5116C15.1294 11.5116 14.7594 11.3716 14.4994 11.1016C14.1794 10.7816 14.0394 10.3216 14.1094 9.84159L14.3094 8.42159C14.3594 8.06158 14.5794 7.63158 14.8294 7.38158L18.5394 3.67158C20.0094 2.20158 21.2894 3.04158 21.9294 3.67158C22.5594 4.30158 23.3994 5.58158 21.9294 7.06158L18.2194 10.7716C17.9594 11.0316 17.5294 11.2416 17.1794 11.2916L15.7594 11.4916C15.6794 11.5016 15.5994 11.5116 15.5194 11.5116ZM20.2294 4.35158C20.0294 4.35158 19.8494 4.49158 19.5994 4.73158L15.8994 8.44158C15.8694 8.48158 15.8094 8.59158 15.7994 8.64158L15.5994 9.99158L16.9594 9.80158C17.0094 9.79158 17.1194 9.73159 17.1594 9.70158L20.8694 5.99158C21.3394 5.52158 21.4094 5.26158 20.8694 4.73158C20.6094 4.47158 20.4194 4.35158 20.2294 4.35158Z" fill="white"/>
<path d="M20.8702 7.81159C20.8002 7.81159 20.7302 7.80159 20.6702 7.78159C19.3002 7.39159 18.2102 6.31159 17.8302 4.94159C17.7202 4.54159 17.9502 4.13159 18.3502 4.01159C18.7502 3.90159 19.1602 4.13159 19.2802 4.53159C19.5302 5.40159 20.2202 6.09159 21.0902 6.34159C21.4902 6.45159 21.7202 6.87159 21.6102 7.26159C21.5002 7.59159 21.2002 7.81159 20.8702 7.81159Z" fill="white"/>
</svg>
