<svg width="22" height="23" viewBox="0 0 22 23" fill="none" xmlns="http://www.w3.org/2000/svg">
<path d="M10.4997 15.4985C8.40844 15.4985 6.71094 13.801 6.71094 11.7097C6.71094 9.61846 8.40844 7.92096 10.4997 7.92096C12.5909 7.92096 14.2884 9.61846 14.2884 11.7097C14.2884 13.801 12.5909 15.4985 10.4997 15.4985ZM10.4997 9.23346C9.13469 9.23346 8.02344 10.3447 8.02344 11.7097C8.02344 13.0747 9.13469 14.186 10.4997 14.186C11.8647 14.186 12.9759 13.0747 12.9759 11.7097C12.9759 10.3447 11.8647 9.23346 10.4997 9.23346Z" fill="#1C2971"/>
<path d="M10.5003 19.6026C7.21031 19.6026 4.10406 17.6776 1.96906 14.3351C1.04156 12.8913 1.04156 10.5376 1.96906 9.08507C4.11281 5.74257 7.21906 3.81757 10.5003 3.81757C13.7816 3.81757 16.8878 5.74257 19.0228 9.08507C19.9503 10.5288 19.9503 12.8826 19.0228 14.3351C16.8878 17.6776 13.7816 19.6026 10.5003 19.6026ZM10.5003 5.13007C7.67406 5.13007 4.97031 6.82757 3.08031 9.79382C2.42406 10.8176 2.42406 12.6026 3.08031 13.6263C4.97031 16.5926 7.67406 18.2901 10.5003 18.2901C13.3266 18.2901 16.0303 16.5926 17.9203 13.6263C18.5766 12.6026 18.5766 10.8176 17.9203 9.79382C16.0303 6.82757 13.3266 5.13007 10.5003 5.13007Z" fill="#1C2971"/>
<path d="M2.6263 19.6649L2.29411 20.0387L2.66782 20.3708L3.41523 21.0352L3.78893 21.3674L4.12111 20.9937L20.1211 2.99368L20.4533 2.61997L20.0796 2.28779L19.3322 1.62343L18.9585 1.29124L18.6263 1.66495L2.6263 19.6649Z" fill="#1C2971" stroke="white"/>
</svg>
