<svg width="21" height="22" viewBox="0 0 21 22" fill="none" xmlns="http://www.w3.org/2000/svg">
<path d="M10.4997 14.5021C8.40844 14.5021 6.71094 12.8046 6.71094 10.7134C6.71094 8.62212 8.40844 6.92462 10.4997 6.92462C12.5909 6.92462 14.2884 8.62212 14.2884 10.7134C14.2884 12.8046 12.5909 14.5021 10.4997 14.5021ZM10.4997 8.23712C9.13469 8.23712 8.02344 9.34837 8.02344 10.7134C8.02344 12.0784 9.13469 13.1896 10.4997 13.1896C11.8647 13.1896 12.9759 12.0784 12.9759 10.7134C12.9759 9.34837 11.8647 8.23712 10.4997 8.23712Z" fill="#1C2971"/>
<path d="M10.5003 18.6059C7.21031 18.6059 4.10406 16.6809 1.96906 13.3384C1.04156 11.8946 1.04156 9.54086 1.96906 8.08836C4.11281 4.74586 7.21906 2.82086 10.5003 2.82086C13.7816 2.82086 16.8878 4.74586 19.0228 8.08836C19.9503 9.53211 19.9503 11.8859 19.0228 13.3384C16.8878 16.6809 13.7816 18.6059 10.5003 18.6059ZM10.5003 4.13336C7.67406 4.13336 4.97031 5.83086 3.08031 8.79711C2.42406 9.82086 2.42406 11.6059 3.08031 12.6296C4.97031 15.5959 7.67406 17.2934 10.5003 17.2934C13.3266 17.2934 16.0303 15.5959 17.9203 12.6296C18.5766 11.6059 18.5766 9.82086 17.9203 8.79711C16.0303 5.83086 13.3266 4.13336 10.5003 4.13336Z" fill="#1C2971"/>
</svg>
