<svg width="24" height="25" viewBox="0 0 24 25" fill="none" xmlns="http://www.w3.org/2000/svg">
<path d="M17.4409 15.4415C17.2509 15.4415 17.0609 15.3715 16.9109 15.2215C16.6209 14.9315 16.6209 14.4515 16.9109 14.1615L18.9409 12.1315L16.9109 10.1015C16.6209 9.81147 16.6209 9.33147 16.9109 9.04147C17.2009 8.75147 17.6809 8.75147 17.9709 9.04147L20.5309 11.6015C20.8209 11.8915 20.8209 12.3715 20.5309 12.6615L17.9709 15.2215C17.8209 15.3715 17.6309 15.4415 17.4409 15.4415Z" fill="white"/>
<path d="M19.9298 12.8816H9.75977C9.34977 12.8816 9.00977 12.5416 9.00977 12.1316C9.00977 11.7216 9.34977 11.3816 9.75977 11.3816H19.9298C20.3398 11.3816 20.6798 11.7216 20.6798 12.1316C20.6798 12.5416 20.3398 12.8816 19.9298 12.8816Z" fill="white"/>
<path d="M11.7598 20.8215C6.60977 20.8215 3.00977 17.2215 3.00977 12.0715C3.00977 6.92153 6.60977 3.32153 11.7598 3.32153C12.1698 3.32153 12.5098 3.66153 12.5098 4.07153C12.5098 4.48153 12.1698 4.82153 11.7598 4.82153C7.48977 4.82153 4.50977 7.80153 4.50977 12.0715C4.50977 16.3415 7.48977 19.3215 11.7598 19.3215C12.1698 19.3215 12.5098 19.6615 12.5098 20.0715C12.5098 20.4815 12.1698 20.8215 11.7598 20.8215Z" fill="white"/>
</svg>
