<svg width="30" height="31" viewBox="0 0 30 31" fill="none" xmlns="http://www.w3.org/2000/svg">
<path d="M15.0248 26.1624C12.1123 26.1624 9.19984 25.6999 6.43734 24.7749C5.38734 24.4124 4.58734 23.6749 4.23734 22.7124C3.87484 21.7499 3.99984 20.6874 4.57484 19.7374L6.01234 17.3499C6.31234 16.8499 6.58734 15.8499 6.58734 15.2624V11.6499C6.58734 6.9999 10.3748 3.2124 15.0248 3.2124C19.6748 3.2124 23.4623 6.9999 23.4623 11.6499V15.2624C23.4623 15.8374 23.7373 16.8499 24.0373 17.3624L25.4623 19.7374C25.9998 20.6374 26.0998 21.7249 25.7373 22.7124C25.3748 23.6999 24.5873 24.4499 23.5998 24.7749C20.8498 25.6999 17.9373 26.1624 15.0248 26.1624ZM15.0248 5.0874C11.4123 5.0874 8.46234 8.0249 8.46234 11.6499V15.2624C8.46234 16.1749 8.08734 17.5249 7.62484 18.3124L6.18734 20.6999C5.91234 21.1624 5.83734 21.6499 5.99984 22.0624C6.14984 22.4874 6.52484 22.8124 7.03734 22.9874C12.2623 24.7374 17.7998 24.7374 23.0248 22.9874C23.4748 22.8374 23.8248 22.4999 23.9873 22.0499C24.1498 21.5999 24.1123 21.1124 23.8623 20.6999L22.4248 18.3124C21.9498 17.4999 21.5873 16.1624 21.5873 15.2499V11.6499C21.5873 8.0249 18.6498 5.0874 15.0248 5.0874Z" fill="#7D7D7D"/>
<path d="M17.3498 5.4251C17.2623 5.4251 17.1748 5.4126 17.0873 5.3876C16.7248 5.2876 16.3748 5.2126 16.0373 5.1626C14.9748 5.0251 13.9498 5.1001 12.9873 5.3876C12.6373 5.5001 12.2623 5.3876 12.0248 5.1251C11.7873 4.8626 11.7123 4.4876 11.8498 4.1501C12.3623 2.8376 13.6123 1.9751 15.0373 1.9751C16.4623 1.9751 17.7123 2.8251 18.2248 4.1501C18.3498 4.4876 18.2873 4.8626 18.0498 5.1251C17.8623 5.3251 17.5998 5.4251 17.3498 5.4251Z" fill="#7D7D7D"/>
<path d="M15.0254 29.0127C13.7879 29.0127 12.5879 28.5127 11.7129 27.6377C10.8379 26.7627 10.3379 25.5627 10.3379 24.3252H12.2129C12.2129 25.0627 12.5129 25.7877 13.0379 26.3127C13.5629 26.8377 14.2879 27.1377 15.0254 27.1377C16.5754 27.1377 17.8379 25.8752 17.8379 24.3252H19.7129C19.7129 26.9127 17.6129 29.0127 15.0254 29.0127Z" fill="#7D7D7D"/>
<circle cx="23" cy="5.5" r="5" fill="#FB0000"/>
</svg>
