<svg width="24" height="25" viewBox="0 0 24 25" fill="none" xmlns="http://www.w3.org/2000/svg">
<path d="M15.0006 22.8218H9.00063C7.68063 22.8218 6.58063 22.6918 5.65063 22.4118C5.31063 22.3118 5.09063 21.9818 5.11063 21.6318C5.36063 18.6418 8.39063 16.2917 12.0006 16.2917C15.6106 16.2917 18.6306 18.6318 18.8906 21.6318C18.9206 21.9918 18.7006 22.3118 18.3506 22.4118C17.4206 22.6918 16.3206 22.8218 15.0006 22.8218ZM6.72063 21.1318C7.38063 21.2618 8.13063 21.3218 9.00063 21.3218H15.0006C15.8706 21.3218 16.6206 21.2618 17.2806 21.1318C16.7506 19.2118 14.5606 17.7917 12.0006 17.7917C9.44063 17.7917 7.25063 19.2118 6.72063 21.1318Z" fill="white"/>
<path d="M15 2.07153H9C4 2.07153 2 4.07153 2 9.07153V15.0715C2 18.8515 3.14 20.9215 5.86 21.6915C6.08 19.0915 8.75 17.0415 12 17.0415C15.25 17.0415 17.92 19.0915 18.14 21.6915C20.86 20.9215 22 18.8515 22 15.0715V9.07153C22 4.07153 20 2.07153 15 2.07153ZM12 14.2415C10.02 14.2415 8.42 12.6316 8.42 10.6516C8.42 8.67155 10.02 7.07153 12 7.07153C13.98 7.07153 15.58 8.67155 15.58 10.6516C15.58 12.6316 13.98 14.2415 12 14.2415Z" stroke="white" stroke-width="1.5" stroke-linecap="round" stroke-linejoin="round"/>
<path d="M11.9999 14.9915C9.60992 14.9915 7.66992 13.0416 7.66992 10.6516C7.66992 8.26155 9.60992 6.32153 11.9999 6.32153C14.3899 6.32153 16.3299 8.26155 16.3299 10.6516C16.3299 13.0416 14.3899 14.9915 11.9999 14.9915ZM11.9999 7.82153C10.4399 7.82153 9.16992 9.09155 9.16992 10.6516C9.16992 12.2216 10.4399 13.4915 11.9999 13.4915C13.5599 13.4915 14.8299 12.2216 14.8299 10.6516C14.8299 9.09155 13.5599 7.82153 11.9999 7.82153Z" fill="white"/>
</svg>
