<svg width="16" height="17" viewBox="0 0 16 17" fill="none" xmlns="http://www.w3.org/2000/svg">
<path d="M4.77922 15.6667C3.19255 15.6667 1.89258 14.5134 1.89258 13.0934V11.7334C1.89258 11.4601 2.11924 11.2334 2.39258 11.2334C2.66591 11.2334 2.89258 11.4601 2.89258 11.7334C2.89258 12.5667 3.69922 13.1934 4.77922 13.1934C5.85922 13.1934 6.66589 12.5667 6.66589 11.7334C6.66589 11.4601 6.89256 11.2334 7.16589 11.2334C7.43923 11.2334 7.66589 11.4601 7.66589 11.7334V13.0934C7.66589 14.5134 6.37255 15.6667 4.77922 15.6667ZM3.06588 13.7467C3.35921 14.2934 4.01922 14.6667 4.77922 14.6667C5.53922 14.6667 6.19922 14.2867 6.49255 13.7467C6.01922 14.0334 5.43255 14.2001 4.77922 14.2001C4.12588 14.2001 3.53921 14.0334 3.06588 13.7467Z" fill="#1C2971"/>
<path d="M4.77922 12.3665C3.68588 12.3665 2.7059 11.8665 2.21924 11.0732C2.0059 10.7265 1.89258 10.3199 1.89258 9.90654C1.89258 9.20654 2.19924 8.5532 2.75924 8.06653C3.83924 7.11986 5.69922 7.1199 6.78589 8.0599C7.34589 8.55323 7.65922 9.20654 7.65922 9.90654C7.65922 10.3199 7.54589 10.7265 7.33256 11.0732C6.85256 11.8665 5.87255 12.3665 4.77922 12.3665ZM4.77922 8.33321C4.25922 8.33321 3.77923 8.50653 3.41923 8.81987C3.07923 9.1132 2.89258 9.49987 2.89258 9.90654C2.89258 10.1399 2.95255 10.3532 3.07255 10.5532C3.37922 11.0599 4.03255 11.3732 4.77922 11.3732C5.52588 11.3732 6.17921 11.0599 6.47921 10.5599C6.59921 10.3666 6.65922 10.1465 6.65922 9.91321C6.65922 9.50654 6.47257 9.11987 6.13257 8.81987C5.77924 8.50653 5.29922 8.33321 4.77922 8.33321Z" fill="#1C2971"/>
<path d="M4.77922 14.1999C3.13255 14.1999 1.89258 13.1399 1.89258 11.7399V9.90658C1.89258 8.48658 3.18588 7.33325 4.77922 7.33325C5.53255 7.33325 6.25256 7.59327 6.79256 8.05994C7.35256 8.55327 7.66589 9.20658 7.66589 9.90658V11.7399C7.66589 13.1399 6.42588 14.1999 4.77922 14.1999ZM4.77922 8.33325C3.73922 8.33325 2.89258 9.03991 2.89258 9.90658V11.7399C2.89258 12.5732 3.69922 13.1999 4.77922 13.1999C5.85922 13.1999 6.66589 12.5732 6.66589 11.7399V9.90658C6.66589 9.49991 6.47924 9.11323 6.13924 8.81323C5.77924 8.50657 5.29922 8.33325 4.77922 8.33325Z" fill="#1C2971"/>
<path d="M12.6926 10.3666C11.6859 10.3666 10.8326 9.61995 10.7526 8.65995C10.6993 8.10662 10.8993 7.56663 11.2993 7.1733C11.6326 6.82663 12.1059 6.6333 12.6059 6.6333H13.9993C14.6593 6.6533 15.166 7.17327 15.166 7.81327V9.18665C15.166 9.82665 14.6593 10.3466 14.0193 10.3666H12.6926ZM13.9793 7.6333H12.6126C12.3793 7.6333 12.166 7.71996 12.0126 7.87996C11.8193 8.06663 11.726 8.31995 11.7526 8.57328C11.786 9.01328 12.2126 9.36662 12.6926 9.36662H13.9993C14.086 9.36662 14.166 9.28665 14.166 9.18665V7.81327C14.166 7.71327 14.0859 7.63997 13.9793 7.6333Z" fill="#1C2971"/>
<path d="M10.6662 14.6666H8.99951C8.72618 14.6666 8.49951 14.4399 8.49951 14.1666C8.49951 13.8933 8.72618 13.6666 8.99951 13.6666H10.6662C12.3862 13.6666 13.4995 12.5533 13.4995 10.8333V10.3666H12.6928C11.6862 10.3666 10.8328 9.61991 10.7528 8.65991C10.6995 8.10658 10.8995 7.56659 11.2995 7.17326C11.6329 6.82659 12.1062 6.63326 12.6062 6.63326H13.4928V6.16659C13.4928 4.60659 12.5795 3.53324 11.0995 3.3599C10.9395 3.33324 10.7995 3.33325 10.6595 3.33325H4.65951C4.49951 3.33325 4.34616 3.34658 4.19283 3.36658C2.72616 3.55324 1.82617 4.61992 1.82617 6.16659V7.49992C1.82617 7.77325 1.59951 7.99992 1.32617 7.99992C1.05284 7.99992 0.826172 7.77325 0.826172 7.49992V6.16659C0.826172 4.11325 2.09286 2.62659 4.05953 2.37992C4.23953 2.35326 4.44617 2.33325 4.65951 2.33325H10.6595C10.8195 2.33325 11.0262 2.33992 11.2395 2.37325C13.2062 2.59992 14.4928 4.09325 14.4928 6.16659V7.13326C14.4928 7.40659 14.2662 7.63326 13.9928 7.63326H12.6062C12.3728 7.63326 12.1595 7.71992 12.0062 7.87992C11.8129 8.06659 11.7195 8.31991 11.7462 8.57324C11.7795 9.01324 12.2062 9.36658 12.6862 9.36658H13.9995C14.2728 9.36658 14.4995 9.59324 14.4995 9.86658V10.8333C14.4995 13.1266 12.9595 14.6666 10.6662 14.6666Z" fill="#1C2971"/>
</svg>
