<svg width="39" height="39" viewBox="0 0 39 39" fill="none" xmlns="http://www.w3.org/2000/svg">
<path d="M0 8C0 3.58172 3.58172 0 8 0H39V39H8C3.58172 39 0 35.4183 0 31V8Z" fill="#596AC5"/>
<path d="M27.5 28.5C27.5 27.1044 27.5 26.4067 27.3278 25.8389C26.94 24.5605 25.9395 23.56 24.6611 23.1722C24.0933 23 23.3956 23 22 23H17C15.6044 23 14.9067 23 14.3389 23.1722C13.0605 23.56 12.06 24.5605 11.6722 25.8389C11.5 26.4067 11.5 27.1044 11.5 28.5M24 15C24 17.4853 21.9853 19.5 19.5 19.5C17.0147 19.5 15 17.4853 15 15C15 12.5147 17.0147 10.5 19.5 10.5C21.9853 10.5 24 12.5147 24 15Z" stroke="white" stroke-width="2" stroke-linecap="round" stroke-linejoin="round"/>
</svg>
