<svg width="24" height="25" viewBox="0 0 24 25" fill="none" xmlns="http://www.w3.org/2000/svg">
<path d="M16 22.8215H8C4.35 22.8215 2.25 20.7215 2.25 17.0715V7.07153C2.25 3.42153 4.35 1.32153 8 1.32153H16C19.65 1.32153 21.75 3.42153 21.75 7.07153V17.0715C21.75 20.7215 19.65 22.8215 16 22.8215ZM8 2.82153C5.14 2.82153 3.75 4.21153 3.75 7.07153V17.0715C3.75 19.9315 5.14 21.3215 8 21.3215H16C18.86 21.3215 20.25 19.9315 20.25 17.0715V7.07153C20.25 4.21153 18.86 2.82153 16 2.82153H8Z" fill="white"/>
<path d="M18.5 9.32153H16.5C14.98 9.32153 13.75 8.09153 13.75 6.57153V4.57153C13.75 4.16153 14.09 3.82153 14.5 3.82153C14.91 3.82153 15.25 4.16153 15.25 4.57153V6.57153C15.25 7.26153 15.81 7.82153 16.5 7.82153H18.5C18.91 7.82153 19.25 8.16153 19.25 8.57153C19.25 8.98153 18.91 9.32153 18.5 9.32153Z" fill="white"/>
<path d="M12 13.8215H8C7.59 13.8215 7.25 13.4815 7.25 13.0715C7.25 12.6615 7.59 12.3215 8 12.3215H12C12.41 12.3215 12.75 12.6615 12.75 13.0715C12.75 13.4815 12.41 13.8215 12 13.8215Z" fill="white"/>
<path d="M16 17.8215H8C7.59 17.8215 7.25 17.4815 7.25 17.0715C7.25 16.6615 7.59 16.3215 8 16.3215H16C16.41 16.3215 16.75 16.6615 16.75 17.0715C16.75 17.4815 16.41 17.8215 16 17.8215Z" fill="white"/>
</svg>
