<svg width="24" height="25" viewBox="0 0 24 25" fill="none" xmlns="http://www.w3.org/2000/svg">
<path d="M11 21.25C5.62 21.25 1.25 16.88 1.25 11.5C1.25 6.12 5.62 1.75 11 1.75C16.38 1.75 20.75 6.12 20.75 11.5C20.75 16.88 16.38 21.25 11 21.25ZM11 3.25C6.45 3.25 2.75 6.95 2.75 11.5C2.75 16.05 6.45 19.75 11 19.75C15.55 19.75 19.25 16.05 19.25 11.5C19.25 6.95 15.55 3.25 11 3.25Z" fill="#7D7D7D"/>
<path d="M20.1591 23.29C20.0791 23.29 19.9991 23.28 19.9291 23.27C19.4591 23.21 18.6091 22.89 18.1291 21.46C17.8791 20.71 17.9691 19.96 18.3791 19.39C18.7891 18.82 19.4791 18.5 20.2691 18.5C21.2891 18.5 22.0891 18.89 22.4491 19.58C22.8091 20.27 22.7091 21.15 22.1391 22C21.4291 23.07 20.6591 23.29 20.1591 23.29ZM19.5591 20.99C19.7291 21.51 19.9691 21.77 20.1291 21.79C20.2891 21.81 20.5891 21.62 20.8991 21.17C21.1891 20.74 21.2091 20.43 21.1391 20.29C21.0691 20.15 20.7891 20 20.2691 20C19.9591 20 19.7291 20.1 19.5991 20.27C19.4791 20.44 19.4591 20.7 19.5591 20.99Z" fill="#7D7D7D"/>
</svg>
