<svg width="24" height="25" viewBox="0 0 24 25" fill="none" xmlns="http://www.w3.org/2000/svg">
<path d="M16 22.8217H8C4.35 22.8217 2.25 20.7217 2.25 17.0717V7.07166C2.25 3.42166 4.35 1.32166 8 1.32166H16C19.65 1.32166 21.75 3.42166 21.75 7.07166V17.0717C21.75 20.7217 19.65 22.8217 16 22.8217ZM8 2.82166C5.14 2.82166 3.75 4.21166 3.75 7.07166V17.0717C3.75 19.9317 5.14 21.3217 8 21.3217H16C18.86 21.3217 20.25 19.9317 20.25 17.0717V7.07166C20.25 4.21166 18.86 2.82166 16 2.82166H8Z" fill="white"/>
<path d="M18.5 9.32166H16.5C14.98 9.32166 13.75 8.09166 13.75 6.57166V4.57166C13.75 4.16166 14.09 3.82166 14.5 3.82166C14.91 3.82166 15.25 4.16166 15.25 4.57166V6.57166C15.25 7.26166 15.81 7.82166 16.5 7.82166H18.5C18.91 7.82166 19.25 8.16166 19.25 8.57166C19.25 8.98166 18.91 9.32166 18.5 9.32166Z" fill="white"/>
<path d="M12 13.8218H8C7.59 13.8218 7.25 13.4818 7.25 13.0718C7.25 12.6618 7.59 12.3218 8 12.3218H12C12.41 12.3218 12.75 12.6618 12.75 13.0718C12.75 13.4818 12.41 13.8218 12 13.8218Z" fill="white"/>
<path d="M16 17.8218H8C7.59 17.8218 7.25 17.4818 7.25 17.0718C7.25 16.6618 7.59 16.3218 8 16.3218H16C16.41 16.3218 16.75 16.6618 16.75 17.0718C16.75 17.4818 16.41 17.8218 16 17.8218Z" fill="white"/>
</svg>
