<svg width="24" height="25" viewBox="0 0 24 25" fill="none" xmlns="http://www.w3.org/2000/svg">
<path d="M15.2408 22.8215H8.7608C6.8708 22.8215 5.4908 22.0315 4.9608 20.6715C4.4108 19.2515 4.9208 17.4915 6.2408 16.3015L10.8808 12.0715L6.2408 7.84153C4.9208 6.65153 4.4108 4.89153 4.9608 3.47153C5.4908 2.10153 6.8708 1.32153 8.7608 1.32153H15.2408C17.1308 1.32153 18.5108 2.11153 19.0408 3.47153C19.5908 4.89153 19.0808 6.65153 17.7608 7.84153L13.1208 12.0715L17.7708 16.3015C19.0808 17.4915 19.6008 19.2515 19.0508 20.6715C18.5108 22.0315 17.1308 22.8215 15.2408 22.8215ZM12.0008 13.0815L7.2508 17.4015C6.4108 18.1715 6.0408 19.2915 6.3608 20.1215C6.6608 20.8915 7.5108 21.3215 8.7608 21.3215H15.2408C16.4908 21.3215 17.3408 20.9015 17.6408 20.1215C17.9608 19.2915 17.6008 18.1715 16.7508 17.4015L12.0008 13.0815ZM8.7608 2.82153C7.5108 2.82153 6.6608 3.24153 6.3608 4.02153C6.0408 4.85153 6.4008 5.97153 7.2508 6.74153L12.0008 11.0615L16.7508 6.74153C17.5908 5.97153 17.9608 4.85153 17.6408 4.02153C17.3408 3.25153 16.4908 2.82153 15.2408 2.82153H8.7608Z" fill="white"/>
</svg>
