<svg width="32" height="33" viewBox="0 0 32 33" fill="none" xmlns="http://www.w3.org/2000/svg">
<path d="M16.7327 28.1667C15.6793 28.1667 14.5194 27.7934 13.3594 27.06L9.46602 24.62C9.19935 24.46 8.89268 24.3667 8.58602 24.3667H6.66602C3.43935 24.3667 1.66602 22.5934 1.66602 19.3667V14.0334C1.66602 10.8067 3.43935 9.03338 6.66602 9.03338H8.57268C8.87935 9.03338 9.18602 8.94004 9.45268 8.78004L13.346 6.34004C15.2927 5.12671 17.186 4.90004 18.6793 5.72671C20.1727 6.55338 20.986 8.27338 20.986 10.58V22.8067C20.986 25.1 20.1593 26.8334 18.6793 27.66C18.0927 28.0067 17.426 28.1667 16.7327 28.1667ZM6.66602 11.0467C4.55935 11.0467 3.66602 11.94 3.66602 14.0467V19.38C3.66602 21.4867 4.55935 22.38 6.66602 22.38H8.57268C9.26602 22.38 9.93268 22.5667 10.5193 22.94L14.4127 25.38C15.6927 26.18 16.906 26.3934 17.7193 25.94C18.5327 25.4867 18.9993 24.3534 18.9993 22.8467V10.5934C18.9993 9.07338 18.5327 7.94004 17.7193 7.50004C16.906 7.04671 15.6927 7.24671 14.4127 8.06004L10.506 10.4867C9.93268 10.86 9.25268 11.0467 8.57268 11.0467H6.66602Z" fill="#1C2971"/>
<path d="M24.0004 23.0466C23.787 23.0466 23.587 22.9799 23.4004 22.8466C22.9604 22.5133 22.867 21.8866 23.2004 21.4466C25.2937 18.6599 25.2937 14.7666 23.2004 11.9799C22.867 11.5399 22.9604 10.9133 23.4004 10.5799C23.8404 10.2466 24.467 10.3399 24.8004 10.7799C27.4137 14.2733 27.4137 19.1533 24.8004 22.6466C24.6004 22.9133 24.307 23.0466 24.0004 23.0466Z" fill="#1C2971"/>
<path d="M26.4398 26.38C26.2265 26.38 26.0265 26.3133 25.8398 26.18C25.3998 25.8466 25.3065 25.22 25.6398 24.78C29.1998 20.0333 29.1998 13.3933 25.6398 8.64663C25.3065 8.20663 25.3998 7.57996 25.8398 7.24663C26.2798 6.9133 26.9065 7.00663 27.2398 7.44663C31.3332 12.9 31.3332 20.5266 27.2398 25.98C27.0532 26.2466 26.7465 26.38 26.4398 26.38Z" fill="#1C2971"/>
</svg>
